<svg width="44" height="44" viewBox="0 0 44 44" fill="none" xmlns="http://www.w3.org/2000/svg">
<path fill-rule="evenodd" clip-rule="evenodd" d="M24.7734 15.6342C24.7592 14.5692 24.1854 13.5888 23.2612 13.0552C22.3254 12.5148 21.1722 12.5148 20.2363 13.0552C19.3004 13.5955 18.7238 14.5941 18.7238 15.6748L18.7238 15.6757V17.517H24.7725V15.6747C24.7725 15.6611 24.7728 15.6477 24.7734 15.6342ZM26.4223 17.517H28.5898C28.7843 17.5167 28.9714 17.5837 29.1138 17.7047C29.256 17.8256 29.3428 17.9915 29.3564 18.1688L30.3784 31.2499C30.3934 31.4441 30.3192 31.6353 30.1738 31.7774C30.0285 31.9196 29.8248 32.0003 29.612 31.9998H29.6118H13.7693C13.5565 32.0003 13.3527 31.9196 13.2075 31.7774C13.062 31.6353 12.9879 31.4442 13.0029 31.2499L14.0249 18.1688C14.0384 17.9915 14.1252 17.8256 14.2675 17.7047C14.4099 17.5837 14.597 17.5167 14.7915 17.517H17.074V15.6748V15.6747L17.074 15.673C17.0747 14.0035 17.9656 12.461 19.4113 11.6264C20.8578 10.7912 22.6397 10.7912 24.0862 11.6264C25.5325 12.4614 26.4235 14.0047 26.4235 15.6748C26.4235 15.6899 26.4231 15.7049 26.4223 15.7198V17.517ZM24.7725 18.9186V22.2744C24.7725 22.4932 24.8594 22.7031 25.014 22.8577C25.1688 23.0125 25.3786 23.0994 25.5973 23.0994C25.8161 23.0994 26.026 23.0125 26.1808 22.8577C26.3354 22.7031 26.4223 22.4932 26.4223 22.2744V18.9186H27.8764L28.7886 30.5981H14.592L15.504 18.9186H17.074V22.2744C17.074 22.4932 17.1609 22.7031 17.3155 22.8577C17.4703 23.0125 17.6801 23.0994 17.899 23.0994C18.1177 23.0994 18.3275 23.0125 18.4823 22.8577C18.6369 22.7031 18.7238 22.4932 18.7238 22.2744V18.9186H24.7725Z" fill="white"/>
</svg>
