<svg width="44" height="44" viewBox="0 0 44 44" fill="none" xmlns="http://www.w3.org/2000/svg">
<path d="M23.7314 12.2908L25.324 13.8842C25.011 14.3323 24.8186 14.8677 24.8186 15.4652C24.8186 16.1879 25.1191 16.8845 25.6267 17.3923C26.5606 18.3268 28.0751 18.4287 29.1356 17.6979L30.7042 19.2673L19.2684 30.7092L17.7017 29.1416C18.4529 28.0721 18.3509 26.5859 17.3953 25.6297L17.3952 25.6297C16.4395 24.6737 14.9538 24.5712 13.8846 25.3225L12.2957 23.7327L23.7314 12.2908ZM29.5026 17.3923C29.502 17.3929 29.5015 17.3934 29.501 17.3939L29.5026 17.3923ZM17.3954 29.506C17.3956 29.5057 17.3958 29.5055 17.3961 29.5053C17.3958 29.5055 17.3955 29.5058 17.3953 29.5061L17.3954 29.506ZM24.0676 11.9544C24.0675 11.9546 24.0674 11.9547 24.0672 11.9549L24.0676 11.9545L24.0676 11.9544Z" stroke="currentColor" stroke-width="2.2"/>
</svg>
