<svg width="44" height="44" viewBox="0 0 44 44" fill="currentColor" xmlns="http://www.w3.org/2000/svg">
<path fill-rule="evenodd" clip-rule="evenodd" d="M19.061 15.4762C19.061 14.5874 19.9676 13.4 21.6967 13.4C23.4258 13.4 24.3324 14.5875 24.3324 15.4762V18.0339C24.3324 18.9227 23.4258 20.1101 21.6967 20.1101C19.9676 20.1101 19.061 18.9227 19.061 18.0339V15.4762ZM21.6967 11C18.9157 11 16.661 13.004 16.661 15.4762V18.0339C16.661 20.5061 18.9157 22.5101 21.6967 22.5101C24.4777 22.5101 26.7324 20.5062 26.7324 18.0339V15.4762C26.7324 13.004 24.4777 11 21.6967 11ZM13.1986 31.6643C14.1276 30.2708 17.2734 27.3026 21.9922 27.3026C26.711 27.3026 29.8569 30.2708 30.7859 31.6643C31.1535 32.2157 31.8985 32.3647 32.45 31.9971C33.0014 31.6295 33.1504 30.8845 32.7828 30.333C31.5357 28.4625 27.7183 24.9026 21.9922 24.9026C16.2662 24.9026 12.4487 28.4625 11.2017 30.333C10.834 30.8845 10.9831 31.6295 11.5345 31.9971C12.0859 32.3647 12.831 32.2157 13.1986 31.6643Z" fill="currentColor"/>
</svg>
