<svg id="Layer_1" data-name="Layer 1" xmlns="http://www.w3.org/2000/svg" viewBox="0 0 269.29 187.09"><defs><style>.cls-1{fill:#f75258;}</style></defs><title>Deltatre Monogram - RGB</title><path class="cls-1" d="M134.55,82.9c17.4,0,31.5,11.94,31.5,26.67a23,23,0,0,1-1.73,8.72l-44.25,15c-10.11-4.44-17-13.37-17-23.67,0-14.73,14.1-26.67,31.5-26.67m-7-21.27h.83a53.79,53.79,0,0,1,37.67,15v-28Zm83.75-28.3-17.84,6v69.07l17.84-6ZM76.63,109.25c0-14.81,7.35-28,18.88-36.78L58.79,84.88V154l32.9-11.11a45.65,45.65,0,0,1-15.06-33.59"/></svg>