<?xml version="1.0" standalone="no"?>
<!DOCTYPE svg PUBLIC "-//W3C//DTD SVG 20010904//EN"
 "http://www.w3.org/TR/2001/REC-SVG-20010904/DTD/svg10.dtd">
<svg version="1.0" xmlns="http://www.w3.org/2000/svg"
 width="180.000000pt" height="180.000000pt" viewBox="0 0 180.000000 180.000000"
 preserveAspectRatio="xMidYMid meet">

<g transform="translate(0.000000,180.000000) scale(0.100000,-0.100000)"
fill="#000000" stroke="none">
<path d="M1560 1452 l-75 -27 -3 -329 c-2 -261 0 -327 10 -324 7 3 43 15 81
27 l67 23 0 329 c0 181 -1 329 -2 328 -2 0 -37 -12 -78 -27z"/>
<path d="M1036 1275 l-150 -52 72 -16 c78 -18 152 -52 200 -91 16 -15 33 -26
36 -26 3 0 6 54 6 120 0 66 -3 119 -7 119 -5 -1 -75 -25 -157 -54z"/>
<path d="M303 1028 l-143 -50 0 -328 0 -328 150 50 150 50 -29 34 c-106 120
-137 296 -80 449 17 47 44 90 102 163 13 17 9 16 -150 -40z"/>
<path d="M772 971 c-61 -21 -123 -76 -154 -135 -16 -31 -19 -53 -16 -105 5
-80 37 -135 105 -180 l44 -29 212 71 c117 39 215 76 219 81 16 22 8 126 -11
164 -30 58 -101 118 -162 136 -70 21 -171 20 -237 -3z"/>
</g>
</svg>
